# xmcd
#
# Track frame offsets:
#	150
#	18772
#	35710
#	53900
#	68857
#	83517
#	107200
#	121245
#	138815
#
# Disc length: 2171 seconds
#
# Revision: 1
# Processed by: cddbd v1.5.1PL0 Copyright (c) Steve Scherf et al.
# Submitted via: CDex 1.50Beta5
#
DISCID=6e087909
DTITLE=チューリップ - I Like Party
DYEAR=1993
DGENRE=
TTITLE0=涙のパーティ
TTITLE1=想い出をかくしても
TTITLE2=アイ・アイ・アイ
TTITLE3=いま確かなこと
TTITLE4=ハーバー・ヴュー・ホテル
TTITLE5=二人のポスター
TTITLE6=サマーレイン・ラプソディー
TTITLE7=Lost in the night
TTITLE8=まるで愛のように
EXTD=
EXTT0=
EXTT1=
EXTT2=
EXTT3=
EXTT4=
EXTT5=
EXTT6=
EXTT7=
EXTT8=
PLAYORDER=
